<?xml version="1.0" encoding="utf-8"?>
<svg width="75" height="75" viewBox="0 0 24 24" fill="none" xmlns="http://www.w3.org/2000/svg">
  <path d="M 16 10.875 L 12 10.875 L 12 12.875 L 16 12.875 L 16 10.875 Z" fill="goldenrod" transform="matrix(0, -1, 1, 0, 2.125, 25.875)"/>
  <path fill-rule="evenodd" clip-rule="evenodd" d="M 11 17.875 C 12.105 17.875 13 16.979 13 15.875 C 13 14.77 12.105 13.875 11 13.875 C 9.895 13.875 9 14.77 9 15.875 C 9 16.979 9.895 17.875 11 17.875 Z M 11 16.375 C 11.276 16.375 11.5 16.151 11.5 15.875 C 11.5 15.598 11.276 15.375 11 15.375 C 10.724 15.375 10.5 15.598 10.5 15.875 C 10.5 16.151 10.724 16.375 11 16.375 Z" fill="goldenrod" transform="matrix(0, -1, 1, 0, -4.875, 26.875)"/>
  <path fill-rule="evenodd" clip-rule="evenodd" d="M 13 7.875 C 13 8.979 12.104 9.875 11 9.875 C 9.895 9.875 9 8.979 9 7.875 C 9 6.77 9.895 5.875 11 5.875 C 12.104 5.875 13 6.77 13 7.875 Z M 11.5 7.875 C 11.5 8.151 11.276 8.375 11 8.375 C 10.724 8.375 10.5 8.151 10.5 7.875 C 10.5 7.598 10.724 7.375 11 7.375 C 11.276 7.375 11.5 7.598 11.5 7.875 Z" fill="goldenrod" transform="matrix(0, -1, 1, 0, 3.125, 18.875)"/>
  <path fill-rule="evenodd" clip-rule="evenodd" d="M 2.749 14.666 C 3.731 16.642 5.769 18 8.125 18 L 16.125 18 C 18.565 18 20.665 16.544 21.603 14.453 C 22.372 13.909 22.875 13.013 22.875 12 C 22.875 10.987 22.372 10.091 21.603 9.548 C 20.665 7.457 18.565 6 16.125 6 L 8.125 6 C 5.769 6 3.731 7.358 2.749 9.334 C 1.784 9.833 1.125 10.839 1.125 12 C 1.125 13.161 1.784 14.167 2.749 14.666 Z M 8.125 8 L 16.125 8 C 17.509 8 18.728 8.702 19.446 9.77 C 19.723 10.459 19.875 11.212 19.875 12 C 19.875 12.788 19.723 13.541 19.446 14.23 C 18.728 15.298 17.509 16 16.125 16 L 8.125 16 C 5.916 16 4.125 14.209 4.125 12 C 4.125 9.791 5.916 8 8.125 8 Z" fill="goldenrod" transform="matrix(0, -1, 1, 0, 0, 24)"/>
</svg>