<?xml version="1.0" encoding="utf-8"?>
<svg width="75" height="75" viewBox="0 0 24 24" fill="none" xmlns="http://www.w3.org/2000/svg">
  <path d="M 14.125 13 L 10.125 13 L 10.125 15 L 14.125 15 L 14.125 13 Z" fill="goldenrod" style="opacity: 0.5;"/>
  <path fill-rule="evenodd" clip-rule="evenodd" d="M 8.125 13 C 9.23 13 10.125 12.104 10.125 11 C 10.125 9.895 9.23 9 8.125 9 C 7.02 9 6.125 9.895 6.125 11 C 6.125 12.104 7.02 13 8.125 13 Z M 8.125 11.5 C 8.401 11.5 8.625 11.276 8.625 11 C 8.625 10.723 8.401 10.5 8.125 10.5 C 7.849 10.5 7.625 10.723 7.625 11 C 7.625 11.276 7.849 11.5 8.125 11.5 Z" fill="goldenrod" style="opacity: 0.5;"/>
  <path fill-rule="evenodd" clip-rule="evenodd" d="M 18.125 11 C 18.125 12.104 17.229 13 16.125 13 C 15.02 13 14.125 12.104 14.125 11 C 14.125 9.895 15.02 9 16.125 9 C 17.229 9 18.125 9.895 18.125 11 Z M 16.625 11 C 16.625 11.276 16.401 11.5 16.125 11.5 C 15.849 11.5 15.625 11.276 15.625 11 C 15.625 10.723 15.849 10.5 16.125 10.5 C 16.401 10.5 16.625 10.723 16.625 11 Z" fill="goldenrod" style="opacity: 0.5;"/>
  <path fill-rule="evenodd" clip-rule="evenodd" d="M 2.749 14.666 C 3.731 16.642 5.769 18 8.125 18 L 16.125 18 C 18.565 18 20.665 16.544 21.603 14.453 C 22.372 13.909 22.875 13.013 22.875 12 C 22.875 10.987 22.372 10.091 21.603 9.548 C 20.665 7.457 18.565 6 16.125 6 L 8.125 6 C 5.769 6 3.731 7.358 2.749 9.334 C 1.784 9.833 1.125 10.839 1.125 12 C 1.125 13.161 1.784 14.167 2.749 14.666 Z M 8.125 8 L 16.125 8 C 17.509 8 18.728 8.702 19.446 9.77 C 19.723 10.459 19.875 11.212 19.875 12 C 19.875 12.788 19.723 13.541 19.446 14.23 C 18.728 15.298 17.509 16 16.125 16 L 8.125 16 C 5.916 16 4.125 14.209 4.125 12 C 4.125 9.791 5.916 8 8.125 8 Z" fill="goldenrod" style="opacity: 0.5;"/>
</svg>