<?xml version="1.0" encoding="utf-8"?>
<svg width="75" height="75" viewBox="0 0 24 24" fill="none" xmlns="http://www.w3.org/2000/svg">
  <path d="M 13 16 C 13.552 16 14 15.552 14 15 C 14 14.448 13.552 14 13 14 C 12.448 14 12 14.448 12 15 C 12 15.552 12.448 16 13 16 Z" fill="red" transform="matrix(0, -1, 1, 0, -2, 28)"/>
  <path d="M 14 9 C 14 9.552 13.552 10 13 10 C 12.448 10 12 9.552 12 9 C 12 8.448 12.448 8 13 8 C 13.552 8 14 8.448 14 9 Z" fill="red" transform="matrix(0, -1, 1, 0, 4, 22)"/>
  <path fill-rule="evenodd" clip-rule="evenodd" d="M 12 22 C 17.523 22 22 17.523 22 12 C 22 6.477 17.523 2 12 2 C 6.477 2 2 6.477 2 12 C 2 17.523 6.477 22 12 22 Z M 12 20 C 16.418 20 20 16.418 20 12 C 20 11.164 19.872 10.357 19.634 9.6 C 18.799 9.826 17.921 9.946 17.015 9.946 C 13.292 9.946 10.044 7.911 8.323 4.893 C 5.755 6.225 4 8.908 4 12 C 4 16.418 7.582 20 12 20 Z" fill="red" transform="matrix(0, -1, 1, 0, 0, 24)"/>
</svg>