<?xml version="1.0" encoding="utf-8"?>
<svg width="75" height="75" viewBox="0 0 24 24" fill="none" xmlns="http://www.w3.org/2000/svg">
  <path d="M 9 14 C 9.552 14 10 13.552 10 13 C 10 12.448 9.552 12 9 12 C 8.448 12 8 12.448 8 13 C 8 13.552 8.448 14 9 14 Z" fill="red" style="opacity: 0.5;"/>
  <path d="M 16 13 C 16 13.552 15.552 14 15 14 C 14.448 14 14 13.552 14 13 C 14 12.448 14.448 12 15 12 C 15.552 12 16 12.448 16 13 Z" fill="red" style="opacity: 0.5;"/>
  <path fill-rule="evenodd" clip-rule="evenodd" d="M 12 22 C 17.523 22 22 17.523 22 12 C 22 6.477 17.523 2 12 2 C 6.477 2 2 6.477 2 12 C 2 17.523 6.477 22 12 22 Z M 12 20 C 16.418 20 20 16.418 20 12 C 20 11.164 19.872 10.357 19.634 9.6 C 18.799 9.826 17.921 9.946 17.015 9.946 C 13.292 9.946 10.044 7.911 8.323 4.893 C 5.755 6.225 4 8.908 4 12 C 4 16.418 7.582 20 12 20 Z" fill="red" style="opacity: 0.5;"/>
</svg>